# xmcd
#
# Track frame offsets: 
#        150
#        10672
#        24657
#        39425
#        52212
#        61657
#        72790
#        87910
#        97382
#        107152
#        119610
#        128930
#        142405
#        153535
#        172710
#        182502
#
# Disc length: 2567 seconds
#
# Revision: 4
# Processed by: cddbd v1.5.2PL0 Copyright (c) Steve Scherf et al.
# Submitted via: ExactAudioCopy v0.99pb5
#
DISCID=e00a0510
DTITLE=Various Artist - Keep On Truckin'
DYEAR=1900
DGENRE=Country
TTITLE0=Gene Simmons - Way Down Yonder In Baton Rouge
TTITLE1=R.Dean Taylor - Indiana Wants Me
TTITLE2=Nev Nichols - Bull Dog Mack
TTITLE3=Kenny Rodgers - Ruby, Don't Take Your Love To Town
TTITLE4=George Jones - The Race Is On
TTITLE5=Roger Miller - King Of The Road
TTITLE6=Sammy's Saloon - Highway Calling
TTITLE7=Dennis Olsen - Truck Driving Outlaw
TTITLE8=Buddy Knox - Travelin' Light
TTITLE9=Red Simpson - Roll Truck Roll
TTITLE10=Sketter Davis - Turn Your Radio On
TTITLE11=Willie Nelson - Undo The Wrong
TTITLE12=Don Williams - Follow Me Back To Louisville
TTITLE13=Don Davod, Jr. - Road To Tijuana
TTITLE14=Johnny Cash - Rock Island Line
TTITLE15=Frankie Laine - Mule Skinner Blues
EXTD=
EXTT0=
EXTT1=
EXTT2=
EXTT3=
EXTT4=
EXTT5=
EXTT6=
EXTT7=
EXTT8=
EXTT9=
EXTT10=
EXTT11=
EXTT12=
EXTT13=
EXTT14=
EXTT15=
PLAYORDER=
